<svg width="34" height="38" viewBox="0 0 34 38" fill="none" xmlns="http://www.w3.org/2000/svg">
<path d="M0 19V38H17H34V19V1.14739e-06H17H0V19ZM33.7012 19V36.8446H17H0.298828L0.278906 19.2568C0.272266 9.57703 0.278906 1.51487 0.298828 1.33514C0.31875 1.07838 3.69883 1.02703 17.0133 1.07838L33.7012 1.15541V19Z" fill="black"/>
<path d="M33.5 37.5V37.3446H17H0.5V37.5H17H33.5ZM0.5 0.735786C0.637836 0.713886 0.807897 0.696175 1.00862 0.680916C1.55272 0.639553 2.40635 0.610542 3.66294 0.591274C6.18042 0.552677 10.359 0.552711 17.0152 0.578384H17.0156L33.5 0.654472V0.5H17H0.5V0.735786Z" fill="black" stroke="black"/>
<path d="M11 12.6396C11 13.2281 11.1023 13.2793 12.1514 13.2793H13.3027L13.2516 18.9594L13.1748 24.665L12.1002 24.5883C11.0768 24.5115 11 24.5371 11 25.1512V25.8164L17.4732 25.7652L23.9209 25.6885V23.8975C23.9209 22.2855 23.8697 22.1064 23.4092 22.1064C22.9742 22.1064 22.8975 22.2855 22.8719 23.3602L22.8463 24.5883L19.8016 24.6139L16.7568 24.6395L16.7057 19.0361L16.6545 13.4072L17.4732 13.2793C18.0873 13.177 18.3176 12.9979 18.3688 12.5629C18.4455 12 18.4455 12 14.7355 12H11V12.6396Z" fill="black"/>
</svg>
