<svg width="131" height="38" viewBox="0 0 131 38" fill="none" xmlns="http://www.w3.org/2000/svg">
<path d="M0 18.9336V37.8672H65.5H131V18.9336V-1.10269e-06H65.5H0V18.9336ZM129.849 18.9336V36.7158H65.5H1.15137L1.07461 19.1895C1.04902 9.54355 1.07461 1.50957 1.15137 1.33047C1.22813 1.07461 14.2514 1.02344 65.5512 1.07461L129.849 1.15137V18.9336Z" fill="black"/>
<path d="M39.8373 11.5393C36.3064 12.358 34.0293 15.0701 34.0293 18.4219C34.0293 21.2619 35.4109 23.5647 37.7904 24.7416C38.9674 25.3045 39.6838 25.458 41.5771 25.5348C45.4918 25.7139 48.076 24.5881 49.5344 22.1319C50.3787 20.6991 50.6602 18.0381 50.1484 16.2471C49.7646 14.891 48.1783 12.9721 46.8479 12.3069C44.9801 11.3602 41.9865 11.0276 39.8373 11.5393ZM43.752 12.8442C45.9268 13.9444 47.1549 17.2194 46.592 20.3408C46.0803 23.0785 44.673 24.5625 42.5494 24.5625C39.607 24.5625 37.8672 22.2342 37.8672 18.3196C37.8672 15.9912 38.1998 14.7887 39.1977 13.6885C40.4514 12.2557 42.0121 11.9742 43.752 12.8442Z" fill="black"/>
<path d="M12.2812 12.1533C12.2812 12.7418 12.3836 12.793 13.4326 12.793H14.584L14.5328 18.473L14.4561 24.1787L13.3814 24.102C12.358 24.0252 12.2812 24.0508 12.2812 24.6648V25.3301L18.7545 25.2789L25.2021 25.2021V23.4111C25.2021 21.7992 25.151 21.6201 24.6904 21.6201C24.2555 21.6201 24.1787 21.7992 24.1531 22.8738L24.1275 24.102L21.0828 24.1275L18.0381 24.1531L17.9869 18.5498L17.9357 12.9209L18.7545 12.793C19.3686 12.6906 19.5988 12.5115 19.65 12.0766C19.7268 11.5137 19.7268 11.5137 16.0168 11.5137H12.2812V12.1533Z" fill="black"/>
<path d="M59.3594 12.1789C59.3594 12.793 59.4361 12.8186 60.4596 12.7418L61.5342 12.665V18.4219V24.1787L60.4596 24.1531C59.4617 24.1275 59.3594 24.2043 59.3594 24.7416V25.3301L65.8326 25.2789L72.2803 25.2021V23.4111C72.2803 21.7992 72.2291 21.6201 71.7686 21.6201C71.3336 21.6201 71.2568 21.7992 71.2313 22.8738L71.2057 24.102L68.1609 24.1531L65.1162 24.1787L65.0395 18.4986L64.9883 12.8186L65.807 12.7418C66.4467 12.6906 66.677 12.5371 66.7281 12.0766C66.8049 11.5137 66.8049 11.5137 63.0949 11.5137H59.3594V12.1789Z" fill="black"/>
<path d="M81.1586 12.0766C81.2098 12.5627 81.4145 12.6906 82.3355 12.7418L83.4102 12.8186L83.359 18.4986L83.2822 24.1787L82.6426 24.2043C81.2609 24.2555 81.1074 24.3066 81.1074 24.8184C81.1074 25.3045 81.2865 25.3301 87.6318 25.3301H94.1563V23.4111C94.1563 21.6713 94.1051 21.4922 93.6701 21.4922C93.2352 21.4922 93.1584 21.6969 93.0816 22.7971L93.0049 24.102H90.2672C88.732 24.0764 87.4016 24.0764 87.248 24.0764C87.0945 24.0508 86.9922 22.0039 86.9922 18.4219C86.9922 12.5627 86.9666 12.665 88.0924 12.7674C88.3994 12.8186 88.5273 12.6395 88.5273 12.1789V11.5137H84.7918C81.0818 11.5137 81.0818 11.5137 81.1586 12.0766Z" fill="black"/>
<path d="M102.6 12.128C102.6 12.6909 102.728 12.7677 103.674 12.8444L104.774 12.9212L107.026 16.9894C109.226 21.0063 109.278 21.1087 109.201 22.6183L109.124 24.179H108.101C107.231 24.179 107.077 24.2558 107 24.7675L106.924 25.356L110.966 25.2792C114.804 25.2024 115.009 25.1769 115.009 24.6907C115.009 24.2558 114.83 24.179 113.934 24.179H112.834V22.0554V19.9317L114.983 16.2985L117.158 12.6653H118.13C118.949 12.6653 119.128 12.563 119.179 12.0769C119.256 11.514 119.23 11.4884 117.004 11.5651C114.958 11.6419 114.753 11.6931 114.753 12.1536C114.753 12.4862 114.958 12.6909 115.29 12.7421C115.802 12.8188 115.7 13.0747 114.062 15.8124C113.064 17.4499 112.246 18.8315 112.194 18.8827C112.169 18.9083 111.376 17.6034 110.454 15.9403C108.868 13.0747 108.817 12.9212 109.329 12.7933C109.661 12.6909 109.917 12.4095 109.968 12.0769C110.045 11.514 110.02 11.514 106.335 11.514H102.6V12.128Z" fill="black"/>
</svg>
